HIERARCHY
ROOT Hips
{
  OFFSET 0 0 0
  CHANNELS 6 Xposition Yposition Zposition Zrotation Yrotation Xrotation
  JOINT LeftThigh
  {
    OFFSET 8.409438 0 -5.917753
    CHANNELS 3 Zrotation Yrotation Xrotation
    JOINT LeftLeg
    {
      OFFSET 0 0 -42.358652
      CHANNELS 3 Zrotation Yrotation Xrotation
      JOINT LeftFoot
      {
        OFFSET 0 0 -39.357303
        CHANNELS 3 Zrotation Yrotation Xrotation
      }
    }
  }
  JOINT RightThigh
  {
    OFFSET -8.409438 0 -5.917753
    CHANNELS 3 Zrotation Yrotation Xrotation
    JOINT RightLeg
    {
      OFFSET 0 0 -42.358652
      CHANNELS 3 Zrotation Yrotation Xrotation
      JOINT RightFoot
      {
        OFFSET 0 0 -39.357303
        CHANNELS 3 Zrotation Yrotation Xrotation
      }
    }
  }
  JOINT SpineLow
  {
    OFFSET 0 0 4.719101
    CHANNELS 3 Zrotation Yrotation Xrotation
    JOINT SpineMid
    {
      OFFSET 0 0 12.899191
      CHANNELS 3 Zrotation Yrotation Xrotation
      JOINT Chest
      {
        OFFSET 0 0 12.899191
        CHANNELS 3 Zrotation Yrotation Xrotation
        JOINT LeftShoulder
        {
          OFFSET 7.550562 1.41573 9.438202
          CHANNELS 3 Zrotation Yrotation Xrotation
          JOINT LeftArm
          {
            OFFSET 9.155056 0 4.247191
            CHANNELS 3 Zrotation Yrotation Xrotation
            JOINT LeftForearm
            {
              OFFSET 0 0 25.771955
              CHANNELS 3 Zrotation Yrotation Xrotation
              JOINT LeftHand
              {
                OFFSET 0 0 25.197169
                CHANNELS 3 Zrotation Yrotation Xrotation
              }
            }
          }
        }
        JOINT RightShoulder
        {
          OFFSET -7.550562 1.41573 9.438202
          CHANNELS 3 Zrotation Yrotation Xrotation
          JOINT RightArm
          {
            OFFSET -9.155056 0 4.247191
            CHANNELS 3 Zrotation Yrotation Xrotation
            JOINT RightForearm
            {
              OFFSET 0 0 -25.771955
              CHANNELS 3 Zrotation Yrotation Xrotation
              JOINT RightHand
              {
                OFFSET 0 0 -25.197169
                CHANNELS 3 Zrotation Yrotation Xrotation
              }
            }
          }
        }
        JOINT Neck
        {
          OFFSET 0 0 15.101124
          CHANNELS 3 Zrotation Yrotation Xrotation
          JOINT Head
          {
            OFFSET 0 0 11.325843
            CHANNELS 3 Zrotation Yrotation Xrotation
            End Site
            {
              OFFSET 0 0 14.157303
            }
          }
        }
      }
    }
  }
}
MOTION
Frames: 5
Frame Time: 0.0
0.0  89.887642  0.0  -3.896678  9.242889  -126.325484  7.26176  -16.067465  17.947711  -17.41606  11.090114  25.341234  -8.845004  -0.094257  -0.24744  27.828407  13.093747  -86.370303  -12.522542  21.901698  109.596896  17.42964  4.94243  3.311967  -2.128318  -1.492838  2.528014  -5.972588  -3.849269  7.042748  -5.972588  -3.849269  7.042749  -24.342584  49.519408  21.696121  -133.052496  50.884546  -89.31525  -29.182131  -29.425804  49.877565  71.236961  11.028754  45.195972  17.232432  17.712129  48.982853  23.06953  37.585193  -33.71259  -17.719163  19.264241  -64.986264  103.210658  -6.162054  10.068604  -23.995696  9.668892  13.833686  -18.185057  6.725741  10.75306  
0.0  89.887642  0.0  -3.935226  8.960121  -126.142461  7.740032  -16.459059  17.840919  -17.614786  11.193645  25.172186  -8.917527  -0.128262  -0.237288  27.972426  12.741417  -85.872185  -12.455987  21.643813  110.002452  17.562714  5.133068  3.358988  -2.099553  -1.498063  2.581688  -5.897577  -3.861746  7.188383  -5.897578  -3.861746  7.188384  -24.476905  49.019767  20.948267  -132.587834  51.261091  -89.089483  -27.760795  -30.279384  48.724796  72.438538  9.798416  45.980249  17.090875  17.723501  48.11369  23.573643  38.161348  -32.808614  -18.111147  19.678808  -64.157633  102.598227  -6.911166  9.363307  -24.152533  9.500347  13.486943  -18.29409  6.609097  10.489929  
0.0  89.887642  0.0  -4.013202  8.596237  -125.928805  7.90815  -16.699376  17.665609  -17.464869  11.235872  25.135276  -8.91707  -0.163262  -0.199702  28.077193  12.831156  -85.482669  -12.99274  21.202356  110.431432  17.594185  5.36063  3.446654  -2.063503  -1.503979  2.638827  -5.802968  -3.876735  7.343144  -5.802968  -3.876735  7.343144  -24.522967  48.476386  20.260941  -131.831035  51.584947  -88.715119  -26.446195  -30.679712  47.671899  74.031173  8.597361  46.682338  17.234948  17.757531  47.400436  23.63423  38.436292  -32.289636  -18.476974  20.264531  -63.356781  102.092926  -7.783408  8.599483  -24.333305  9.26498  13.171672  -18.420888  6.440653  10.248236  
0.0  89.887642  0.0  -4.003325  8.195907  -125.731509  7.748451  -16.640014  17.503861  -17.363734  11.286821  24.980028  -8.659201  -0.098582  -0.072725  28.13993  13.152022  -84.971424  -13.849637  20.465953  110.782093  17.482929  5.61753  3.55251  -2.039238  -1.472447  2.628934  -5.732407  -3.794348  7.311731  -5.732407  -3.794348  7.311731  -23.848857  48.129599  20.448972  -130.898442  51.807882  -88.186573  -25.351506  -30.766242  46.794473  78.04111  11.291688  41.32859  17.46649  17.440174  47.288859  23.774326  38.864922  -31.897518  -19.048783  20.818111  -62.385407  101.806067  -8.52318  7.956549  -24.319325  9.159813  13.115017  -18.408075  6.364072  10.201724  
0.0  89.887642  0.0  -3.924294  7.710017  -125.533808  7.448138  -16.460545  17.385532  -16.89412  11.302972  24.988393  -8.502117  -0.080522  0.01192  28.203829  13.418048  -84.326717  -14.631202  19.601905  111.019618  17.35884  5.863982  3.66133  -1.900757  -1.469264  2.621106  -5.35325  -3.801783  7.282438  -5.353251  -3.801783  7.282438  -23.797899  47.9057  20.676612  -130.048197  51.977696  -87.600281  -24.506328  -30.908134  46.256937  80.028945  10.950038  42.116713  17.269962  17.302721  47.334662  23.355758  39.003397  -31.860641  -19.409324  21.518402  -61.641212  101.426173  -9.488234  7.340468  -24.724243  8.999976  13.065037  -18.708329  6.237531  10.165145  
